<svg xmlns="http://www.w3.org/2000/svg" viewBox="0 0 200 200"><g id="Layer_2" data-name="Layer 2"><g id="Layer_1-2" data-name="Layer 1"><path d="M160,0H40A40,40,0,0,0,0,40V160a40,40,0,0,0,40,40H160a40,40,0,0,0,40-40V40A40,40,0,0,0,160,0ZM128,145.25q-8.46,7.92-23.69,7.92H63.51V46.83h37.33q15.69,0,24,7.62t8.3,20.72q0,9.14-4.49,14.55t-12.88,7.84v.92q9.9,2.43,15.31,8.53t5.41,16.91Q136.49,137.33,128,145.25Z"/><path d="M109.83,75v4.57q0,7-3.66,9.68T94.44,91.92H85.76V62.82h8.68q8.07,0,11.73,2.6T109.83,75Z"/><path d="M113.18,120v4.42q0,7.31-3.81,10.05t-12,2.74H85.76v-30H97.34q8.22,0,12,2.74T113.18,120Z"/></g></g></svg>