<svg xmlns="http://www.w3.org/2000/svg" viewBox="0 0 200 200"><g id="Layer_2" data-name="Layer 2"><g id="Layer_1-2" data-name="Layer 1"><path d="M160,0H40A40,40,0,0,0,0,40V160a40,40,0,0,0,40,40H160a40,40,0,0,0,40-40V40A40,40,0,0,0,160,0ZM89.26,128.79q3.88,7.77,13.79,7.77,7.77,0,11.58-4.57t3.81-11.73v-7.77H100.31V96.34h38.54v56.83H118.44V138.09h-1.37a39,39,0,0,1-3.36,6.4,23.55,23.55,0,0,1-4.87,5.41,22.64,22.64,0,0,1-6.78,3.73A26.32,26.32,0,0,1,93.3,155a26,26,0,0,1-13.79-3.66,29.76,29.76,0,0,1-10.13-10.66,55.59,55.59,0,0,1-6.17-17.07,113.78,113.78,0,0,1-2.06-22.7q0-27.1,9.9-41.51T101.68,45a43.4,43.4,0,0,1,14.47,2.21,31.52,31.52,0,0,1,10.74,6.25,33.19,33.19,0,0,1,7.39,9.67,56.9,56.9,0,0,1,4.57,12.49L117.52,80.8q-.92-3.35-2-6.47a22,22,0,0,0-3-5.56,13.57,13.57,0,0,0-4.58-3.89,14.24,14.24,0,0,0-6.7-1.44q-8.68,0-12.26,7.16T85.38,90.71v17.36Q85.38,121,89.26,128.79Z"/></g></g></svg>