<svg xmlns="http://www.w3.org/2000/svg" viewBox="0 0 200 200"><g id="Layer_2" data-name="Layer 2"><g id="Layer_1-2" data-name="Layer 1"><path d="M109.67,68.31q3.14,3,3.13,10.06v4.57q0,7-3.13,10T98.48,96H86.14V65.26H98.48Q106.55,65.26,109.67,68.31Z"/><path d="M160,0H40A40,40,0,0,0,0,40V160a40,40,0,0,0,40,40H160a40,40,0,0,0,40-40V40A40,40,0,0,0,160,0ZM134.74,94.67a28.78,28.78,0,0,1-6.33,10.66,27.64,27.64,0,0,1-10.28,6.78,38,38,0,0,1-13.86,2.36H86.14v38.7h-23V46.83h41.14a38.21,38.21,0,0,1,13.86,2.36A27.77,27.77,0,0,1,128.41,56a28.86,28.86,0,0,1,6.33,10.66,43.31,43.31,0,0,1,2.13,14A43.31,43.31,0,0,1,134.74,94.67Z"/></g></g></svg>