<svg xmlns="http://www.w3.org/2000/svg" viewBox="0 0 200 200"><g id="Layer_2" data-name="Layer 2"><g id="Layer_1-2" data-name="Layer 1"><path d="M160,0H40A40,40,0,0,0,0,40V160a40,40,0,0,0,40,40H160a40,40,0,0,0,40-40V40A40,40,0,0,0,160,0ZM137.4,134.23a29.68,29.68,0,0,1-7.77,11,36.36,36.36,0,0,1-12.72,7.23A54.11,54.11,0,0,1,99.31,155q-13.4,0-23.31-4.38a41.82,41.82,0,0,1-16-11.94l13.25-14.61A37.56,37.56,0,0,0,86,133.52a34.74,34.74,0,0,0,14.1,3q8.22,0,12.49-3.68t4.27-10.61c0-3.79-1.1-6.65-3.28-8.6s-5.87-3.33-11-4.15l-11.12-1.83q-14.33-2.43-20.72-10.57t-6.4-19.86q0-15.37,10.06-23.81T102.51,45A56,56,0,0,1,124,48.78a38.71,38.71,0,0,1,14.77,10.27l-13,14.44a30.69,30.69,0,0,0-10-7.39,31.1,31.1,0,0,0-13.1-2.66q-15.39,0-15.39,12.75,0,5.53,3.43,8.31t11.19,4.15l11.13,2Q126,92.91,133,100.37t7,20.09A35.88,35.88,0,0,1,137.4,134.23Z"/></g></g></svg>